<?xml version="1.0" standalone="no"?>
<!DOCTYPE svg PUBLIC "-//W3C//DTD SVG 20010904//EN"
 "http://www.w3.org/TR/2001/REC-SVG-20010904/DTD/svg10.dtd">
<svg version="1.0" xmlns="http://www.w3.org/2000/svg"
 width="800.000000pt" height="800.000000pt" viewBox="0 0 800.000000 800.000000"
 preserveAspectRatio="xMidYMid meet">
<metadata>
Created by potrace 1.11, written by Peter Selinger 2001-2013
</metadata>
<g transform="translate(0.000000,800.000000) scale(0.100000,-0.100000)"
fill="#000000" stroke="none">
<path d="M4157 5984 c-3 -3 -13 -7 -24 -9 -10 -2 -18 -4 -18 -5 0 -1 -8 -3
-17 -5 -9 -2 -31 -10 -48 -18 -17 -9 -27 -11 -24 -5 4 5 -5 2 -20 -7 -14 -10
-26 -14 -26 -10 0 4 -6 2 -14 -4 -7 -6 -25 -12 -40 -13 -14 -1 -26 -5 -26 -9
0 -3 -25 -12 -55 -19 -31 -7 -52 -17 -48 -23 3 -6 1 -7 -4 -4 -10 7 -92 -16
-126 -34 -10 -5 -22 -7 -27 -4 -6 4 -10 1 -10 -4 0 -6 -9 -11 -20 -11 -11 0
-20 -4 -20 -9 0 -5 -10 -7 -22 -3 -12 3 -19 1 -15 -4 3 -5 -2 -10 -11 -11 -25
-2 -45 -8 -59 -16 -7 -5 -13 -5 -13 -1 0 3 -7 1 -15 -6 -8 -7 -15 -9 -15 -5 0
4 -6 3 -12 -2 -7 -6 -21 -9 -31 -8 -9 2 -15 0 -13 -4 3 -4 -16 -13 -42 -21
-26 -7 -50 -14 -54 -15 -5 -2 -10 -4 -13 -5 -3 -1 -9 -4 -15 -5 -5 -1 -12 -4
-15 -5 -3 -1 -9 -4 -15 -5 -5 -1 -12 -4 -15 -5 -3 -1 -9 -4 -15 -5 -5 -1 -13
-4 -17 -5 -5 -1 -11 -2 -15 -1 -5 0 -8 -4 -8 -10 0 -5 -4 -7 -10 -4 -5 3 -20
0 -32 -7 -13 -6 -27 -12 -33 -13 -5 0 -20 -6 -31 -12 -12 -7 -24 -10 -27 -6
-4 3 -12 1 -19 -4 -7 -6 -26 -14 -43 -18 -45 -12 -45 -12 -47 -15 -2 -1 -10
-3 -18 -5 -37 -8 -45 -11 -58 -23 -8 -7 -17 -10 -22 -7 -5 3 -11 1 -15 -5 -4
-6 -11 -8 -16 -4 -5 3 -16 0 -24 -6 -8 -7 -15 -9 -15 -5 0 4 -7 2 -15 -5 -8
-7 -15 -9 -15 -4 0 4 -5 3 -12 -4 -7 -7 -18 -12 -24 -12 -7 0 -25 -5 -41 -12
-15 -6 -32 -12 -38 -12 -5 -1 -20 -7 -31 -13 -12 -7 -24 -10 -27 -6 -4 3 -12
1 -19 -4 -7 -6 -26 -14 -43 -18 -44 -12 -45 -12 -50 -15 -3 -1 -9 -4 -15 -5
-5 -1 -12 -4 -15 -5 -3 -1 -9 -4 -15 -5 -5 -1 -12 -4 -15 -5 -3 -1 -8 -3 -12
-5 -5 -1 -17 -5 -28 -9 -11 -4 -31 -12 -45 -16 -14 -4 -34 -12 -45 -16 -11 -4
-26 -6 -32 -5 -7 1 -13 -2 -13 -6 0 -5 -8 -9 -17 -10 -10 -1 -31 -7 -48 -14
-16 -7 -34 -13 -40 -14 -5 0 -17 -5 -25 -10 -13 -8 -28 -12 -67 -17 -7 -1 -13
-6 -13 -11 0 -6 -3 -8 -6 -5 -3 4 -34 -4 -69 -17 -35 -12 -66 -20 -69 -17 -3
3 -6 1 -6 -5 0 -5 -6 -10 -12 -11 -15 -1 -52 -10 -55 -12 -2 -2 -7 -3 -12 -4
-5 0 -13 -4 -17 -8 -4 -5 -13 -8 -20 -8 -7 0 -25 -5 -41 -12 -15 -6 -31 -11
-35 -10 -5 1 -8 -4 -8 -10 0 -9 -4 -8 -10 2 -8 12 -10 12 -10 1 0 -8 -3 -11
-7 -8 -3 4 -12 2 -19 -4 -8 -6 -21 -9 -29 -5 -9 3 -15 0 -15 -9 0 -9 -6 -12
-15 -9 -9 4 -15 0 -15 -7 0 -11 -3 -11 -10 1 -6 10 -10 11 -10 3 0 -7 -9 -13
-21 -13 -33 0 -84 -62 -83 -101 1 -64 34 -111 84 -118 14 -1 27 -6 30 -10 3
-3 16 -8 30 -9 14 -2 30 -8 37 -14 6 -5 22 -10 35 -12 13 -1 33 -8 45 -15 13
-6 23 -8 23 -4 0 4 5 2 12 -5 7 -7 22 -12 35 -12 13 0 23 -5 23 -11 0 -5 4 -8
8 -5 5 3 19 -1 33 -7 13 -7 35 -13 48 -14 13 -1 27 -6 30 -11 3 -5 16 -8 28
-7 12 1 20 -2 17 -7 -3 -4 13 -11 36 -14 22 -4 40 -10 40 -14 0 -3 7 -7 15 -8
8 -1 22 -3 30 -4 8 -1 15 -5 15 -10 0 -5 4 -7 9 -4 17 11 18 -17 2 -34 -32
-34 -51 -60 -43 -60 4 0 -1 -5 -11 -11 -9 -6 -15 -14 -12 -20 4 -5 1 -9 -5 -9
-6 0 -8 -4 -5 -10 3 -5 1 -10 -4 -10 -6 0 -10 -3 -9 -7 0 -5 -8 -28 -19 -53
-29 -65 -36 -84 -35 -92 1 -5 -2 -8 -6 -8 -4 0 -8 -8 -9 -17 -1 -22 -8 -50
-21 -83 -5 -14 -7 -31 -5 -37 3 -7 0 -13 -6 -13 -6 0 -8 -6 -5 -14 3 -8 1 -23
-5 -34 -7 -13 -7 -23 2 -32 7 -7 7 -10 1 -7 -7 4 -11 -4 -12 -21 -2 -33 -9
-69 -17 -82 -3 -6 -1 -10 6 -10 8 0 8 -4 1 -12 -5 -7 -9 -26 -8 -43 1 -16 -3
-36 -8 -42 -4 -7 -5 -13 0 -14 5 -1 -2 -4 -16 -8 -14 -4 -24 -13 -22 -19 1 -7
-2 -11 -7 -10 -13 4 -88 -77 -84 -89 2 -6 -2 -17 -10 -24 -7 -8 -12 -20 -9
-28 3 -8 0 -11 -5 -8 -7 4 -9 -21 -6 -71 5 -103 5 -102 15 -102 4 0 8 -5 8
-12 0 -14 49 -88 70 -105 8 -7 28 -18 43 -25 27 -13 28 -15 22 -71 -2 -32 -7
-62 -9 -66 -2 -3 -7 -26 -11 -50 -3 -24 -10 -53 -14 -65 -5 -11 -9 -25 -10
-31 -1 -5 -7 -28 -13 -50 -6 -22 -12 -43 -14 -47 -1 -5 -3 -10 -4 -13 -1 -3
-3 -8 -5 -12 -14 -53 -19 -62 -28 -56 -5 3 -7 1 -3 -5 3 -6 1 -23 -6 -39 -6
-15 -11 -31 -10 -35 1 -5 -2 -8 -7 -8 -5 0 -12 -12 -16 -27 -3 -14 -15 -37
-25 -51 -11 -13 -17 -28 -14 -33 3 -5 1 -9 -3 -9 -5 0 -19 -20 -33 -45 -14
-25 -28 -45 -32 -45 -5 0 -8 -7 -8 -15 0 -8 -4 -15 -10 -15 -5 0 -10 -4 -10
-10 0 -10 -21 -38 -58 -76 -13 -13 -21 -24 -18 -24 3 0 -31 -37 -75 -82 -43
-45 -79 -86 -79 -91 0 -4 -4 -6 -8 -3 -16 10 -8 -29 10 -48 10 -11 18 -17 18
-13 0 4 9 -1 20 -11 12 -9 23 -16 26 -14 2 1 14 -7 26 -18 12 -11 28 -20 35
-20 7 0 13 -5 13 -11 0 -6 7 -9 15 -5 8 3 15 1 15 -4 0 -6 7 -10 15 -10 8 0
15 -4 15 -10 0 -5 9 -10 20 -10 11 0 20 -5 20 -11 0 -5 5 -7 10 -4 6 3 10 1
10 -6 0 -7 3 -10 6 -6 4 3 24 -3 45 -14 22 -11 39 -17 39 -13 0 4 7 1 15 -6 8
-7 15 -9 15 -4 0 5 5 2 10 -6 8 -13 10 -13 10 0 0 10 3 11 12 2 7 -7 17 -8 29
-1 10 5 22 9 26 8 16 -2 53 14 53 23 0 5 5 6 10 3 6 -3 10 -1 10 4 0 6 7 11
15 11 9 0 18 7 21 15 4 8 9 13 13 11 7 -4 121 110 122 121 0 5 9 18 19 31 11
12 18 22 15 22 -3 0 8 24 25 53 16 30 27 57 23 60 -3 4 -1 7 6 7 7 0 11 7 8
15 -4 8 -2 17 3 20 6 4 10 15 10 26 0 10 3 19 8 19 7 0 12 34 15 107 1 18 4
33 7 33 3 0 6 63 6 140 -1 84 -5 140 -10 140 -6 0 -5 5 2 12 8 8 8 17 1 31 -9
15 -8 18 2 12 8 -6 10 -4 4 5 -4 7 -9 36 -11 64 -1 28 -4 75 -5 104 -2 28 -8
52 -14 52 -5 0 -3 5 5 10 8 5 10 10 5 10 -6 0 -12 15 -12 33 -2 34 -9 88 -13
97 -9 20 -1 38 24 58 17 12 27 22 23 22 -3 0 5 12 18 26 14 15 25 36 25 46 0
11 4 17 9 14 5 -4 8 5 6 19 -1 14 1 25 5 25 3 0 5 26 3 58 -6 88 -8 100 -13
97 -3 -2 -12 9 -19 25 -14 32 -77 100 -93 100 -5 0 -6 5 -3 10 3 6 1 10 -5 10
-7 0 -8 6 0 19 7 14 6 21 -3 24 -9 3 -9 8 -1 18 5 8 10 25 9 39 0 14 4 28 10
32 6 5 5 8 -3 8 -10 0 -10 5 -2 20 6 12 10 28 8 38 -1 9 0 22 4 27 3 6 9 26
12 46 3 20 10 49 16 64 6 15 8 30 6 33 -3 2 1 14 9 26 8 11 15 28 15 38 0 10
5 18 10 18 6 0 9 3 8 8 -4 10 57 115 76 131 9 7 16 20 16 27 0 8 7 14 15 14 8
0 15 7 15 17 0 9 3 14 6 10 3 -3 17 4 30 16 35 33 47 42 67 50 9 3 17 11 17
17 0 6 4 9 8 6 5 -3 18 3 29 13 17 16 55 34 75 36 4 0 17 8 28 18 12 10 25 15
30 12 6 -4 10 -2 10 3 0 8 15 15 43 20 4 1 28 13 53 27 25 14 50 23 55 20 5
-4 9 -1 9 5 0 6 5 8 10 5 6 -3 10 -1 10 4 0 6 3 10 8 9 7 -1 43 12 87 31 17 8
49 21 65 26 26 9 68 27 83 36 11 6 21 8 24 5 3 -3 12 2 20 10 8 8 19 12 24 9
5 -4 9 -1 9 5 0 6 5 8 10 5 6 -3 10 -1 10 4 0 6 3 10 8 9 17 -4 91 26 85 35
-3 5 0 7 8 5 8 -3 26 1 40 8 15 7 29 10 33 7 3 -4 6 -1 6 5 0 7 9 12 20 12 11
0 20 5 20 11 0 5 4 8 9 5 5 -3 28 3 52 13 42 17 78 32 89 36 17 6 52 20 102
40 31 13 59 21 62 18 3 -4 6 -1 6 6 0 8 7 11 15 7 8 -3 21 2 30 10 8 9 15 12
15 8 0 -3 8 0 17 7 15 12 16 12 8 -1 -6 -10 -1 -9 12 3 12 10 33 20 48 22 15
1 30 7 34 12 3 6 14 9 24 7 9 -1 17 3 17 9 0 5 3 7 7 4 3 -4 12 -2 20 4 7 6
13 8 13 4 0 -4 6 -3 13 2 10 8 48 22 77 27 3 1 11 5 18 9 6 5 16 6 21 3 5 -4
11 -2 13 4 2 6 18 11 36 13 17 1 32 5 32 8 0 10 74 -2 81 -13 3 -5 9 -9 13 -9
9 2 50 -42 55 -59 8 -30 8 -90 -1 -90 -5 0 -7 -4 -4 -9 6 -9 -48 -70 -64 -72
-13 -2 -29 -6 -35 -9 -3 -1 -9 -4 -15 -5 -5 -1 -13 -4 -17 -5 -5 -1 -11 -2
-15 -1 -5 0 -8 -3 -8 -7 0 -5 -7 -9 -15 -10 -8 -1 -22 -3 -30 -4 -8 -1 -15 -5
-15 -10 0 -5 -5 -6 -10 -3 -6 4 -17 1 -25 -5 -8 -7 -15 -9 -15 -4 0 5 -4 4 -8
-1 -4 -6 -41 -21 -82 -34 -41 -14 -78 -29 -82 -35 -5 -7 -8 -6 -8 4 0 9 -3 11
-8 4 -9 -13 -43 -28 -58 -25 -6 0 -17 -6 -24 -14 -7 -8 -22 -15 -35 -15 -12 0
-25 -3 -29 -7 -4 -5 -11 -8 -14 -8 -4 -1 -18 -7 -32 -15 -14 -7 -27 -13 -30
-13 -3 0 -15 -3 -28 -8 -13 -5 -30 -9 -38 -9 -8 0 -14 -5 -14 -12 0 -6 -3 -9
-6 -5 -4 3 -19 0 -34 -8 -15 -8 -30 -11 -34 -8 -3 4 -6 1 -6 -6 0 -7 -4 -9
-10 -6 -5 3 -10 2 -10 -2 0 -5 -10 -9 -22 -10 -11 -1 -25 -8 -29 -15 -5 -7 -9
-10 -9 -6 0 4 -24 -3 -54 -16 -30 -13 -57 -22 -60 -18 -3 3 -6 0 -6 -6 0 -6
-16 -14 -35 -18 -19 -3 -35 -10 -35 -15 0 -5 -3 -8 -7 -7 -10 2 -25 -4 -138
-52 -17 -7 -31 -12 -65 -25 -3 -1 -21 -8 -40 -16 -19 -7 -38 -12 -42 -11 -5 1
-8 -2 -8 -8 0 -6 -3 -9 -7 -8 -5 1 -19 -4 -33 -12 -14 -7 -25 -12 -25 -11 0 2
-45 -13 -75 -26 -18 -8 -27 -10 -40 -12 -5 0 -10 -6 -10 -12 0 -5 5 -7 10 -4
6 3 10 1 10 -6 0 -7 3 -9 7 -6 3 4 12 2 19 -4 7 -6 28 -13 46 -16 18 -3 36
-10 40 -16 4 -7 8 -8 8 -4 0 4 9 3 21 -3 20 -11 53 -21 77 -22 6 -1 12 -5 12
-10 0 -5 4 -7 9 -3 5 3 15 -1 23 -8 7 -7 23 -12 36 -11 12 1 25 -3 28 -8 3 -4
10 -6 15 -3 5 4 9 1 9 -6 0 -7 3 -10 6 -6 4 3 23 -1 43 -10 20 -8 44 -15 54
-15 9 0 17 -4 17 -10 0 -6 3 -9 6 -6 3 4 21 0 40 -8 19 -8 34 -11 34 -7 0 4 5
2 12 -5 7 -7 20 -12 29 -12 9 0 22 -6 28 -13 6 -8 21 -13 33 -12 13 1 32 -4
43 -10 11 -7 28 -11 38 -10 9 2 17 -1 17 -6 0 -6 5 -7 10 -4 6 3 10 1 10 -4 0
-6 11 -11 25 -11 14 0 25 -5 25 -11 0 -5 4 -7 10 -4 5 3 19 1 30 -5 21 -11 54
-21 78 -22 6 -1 12 -5 12 -10 0 -5 3 -7 8 -5 4 3 18 0 32 -6 14 -5 32 -11 40
-13 8 -2 44 -15 79 -28 35 -14 67 -23 72 -21 4 3 10 1 14 -5 3 -5 17 -10 31
-10 13 0 24 -4 24 -10 0 -5 9 -10 20 -10 10 0 29 -4 42 -9 94 -38 150 -51 171
-40 9 6 22 7 27 4 5 -3 12 0 15 6 4 5 13 8 21 5 8 -3 14 -1 14 4 0 6 6 10 14
10 8 0 25 4 38 9 13 5 28 10 33 11 6 1 30 10 55 20 25 9 53 16 63 15 9 -2 15
0 12 5 -5 7 83 37 98 32 4 -1 7 2 7 8 0 6 3 9 8 9 15 -3 72 14 72 21 0 5 9 6
20 3 12 -3 20 0 20 6 0 7 4 10 8 7 5 -3 20 1 35 9 14 7 28 11 31 7 3 -3 6 1 6
9 0 11 2 11 10 -1 7 -11 10 -11 10 -2 0 7 5 10 10 7 6 -3 10 -1 10 4 0 6 3 10
8 10 13 -3 72 13 72 20 0 3 11 7 25 8 45 4 55 6 55 14 0 8 38 22 63 22 9 0 17
4 17 8 0 5 3 8 8 8 14 -3 72 14 78 22 2 4 12 5 21 2 12 -5 14 -3 8 7 -5 8 -4
11 2 7 8 -5 35 2 111 28 7 2 16 5 20 6 4 1 22 8 40 16 17 7 32 11 32 8 0 -3
11 2 25 11 13 8 28 13 34 10 5 -4 16 0 24 8 8 8 17 12 21 9 3 -3 13 0 22 8 10
8 19 13 20 12 9 -6 64 11 64 19 0 5 5 6 10 3 6 -3 16 -3 23 2 6 4 18 9 25 10
21 5 36 10 72 24 19 7 43 13 53 13 9 -1 17 2 17 7 0 4 16 11 35 15 19 3 35 10
35 15 0 5 7 6 15 3 8 -4 15 -2 15 4 0 5 13 9 29 8 17 -1 28 1 25 5 -5 8 35 22
59 19 9 -1 17 4 17 10 0 7 6 10 13 7 6 -2 27 5 45 15 20 11 31 13 26 6 -5 -10
-4 -10 6 -1 7 6 20 9 29 6 9 -4 13 -2 8 2 -7 8 83 43 131 50 13 2 29 9 37 15
8 7 15 9 15 5 0 -4 7 -2 15 5 8 7 15 9 15 5 0 -4 7 -2 15 5 8 7 15 10 15 6 0
-4 13 0 30 9 16 8 31 15 32 14 7 -2 64 15 87 27 13 7 28 11 33 8 5 -3 14 -1
21 5 7 5 24 12 37 15 36 6 60 17 60 26 0 4 11 6 25 5 14 -2 25 1 25 6 0 5 11
9 24 9 14 0 28 5 31 10 4 6 10 8 15 5 5 -3 11 -1 14 4 4 5 17 8 31 7 13 -2 22
0 20 4 -5 8 24 24 38 21 5 -1 6 3 3 8 -4 5 -2 11 4 13 10 3 19 31 24 73 6 45
-43 95 -111 113 -27 8 -56 18 -65 23 -10 5 -25 9 -33 9 -8 0 -15 4 -15 10 0 5
-6 7 -14 4 -8 -3 -17 -1 -20 5 -4 6 -13 8 -21 4 -8 -3 -15 0 -15 7 0 6 -4 8
-10 5 -5 -3 -10 -2 -10 3 0 5 -10 9 -22 8 -13 -1 -39 7 -58 16 -19 10 -45 18
-57 18 -13 0 -23 5 -23 12 0 6 -3 8 -6 5 -4 -3 -15 -2 -26 4 -11 6 -32 13 -46
15 -15 3 -29 9 -30 15 -2 5 -8 7 -13 4 -4 -3 -23 1 -40 10 -18 10 -28 12 -24
5 4 -7 -4 -5 -17 4 -14 9 -28 13 -31 9 -4 -3 -7 -2 -7 4 0 6 -18 13 -40 17
-22 3 -40 11 -40 17 0 5 -4 8 -9 5 -4 -3 -32 4 -62 15 -30 12 -62 21 -71 21
-10 -1 -18 4 -18 9 0 6 -4 8 -9 4 -5 -3 -12 -1 -16 4 -3 6 -12 8 -20 4 -8 -3
-15 0 -15 7 0 6 -4 8 -10 5 -5 -3 -10 -1 -10 5 0 6 -4 9 -9 6 -4 -3 -32 4 -62
15 -30 12 -62 21 -71 21 -10 -1 -18 3 -18 9 0 5 -9 9 -21 9 -11 0 -30 5 -42
12 -12 7 -26 13 -32 13 -32 4 -76 19 -81 26 -3 5 -10 7 -15 4 -5 -4 -9 -2 -9
3 0 6 -9 8 -20 5 -11 -3 -20 0 -20 6 0 6 -3 10 -7 9 -14 -4 -103 26 -103 35 0
4 -4 5 -10 2 -5 -3 -19 -1 -30 5 -21 11 -54 21 -77 22 -7 1 -13 5 -13 10 0 4
-10 8 -23 8 -12 0 -33 8 -46 17 -18 12 -22 13 -16 2 7 -11 6 -12 -7 -2 -8 7
-18 10 -21 6 -4 -3 -7 -1 -7 5 0 7 -13 12 -30 12 -16 0 -30 5 -30 10 0 6 -10
10 -23 10 -13 0 -28 5 -35 12 -7 7 -12 9 -12 5 0 -4 -22 2 -49 13 -27 10 -52
16 -55 13 -3 -4 -6 -1 -6 5 0 7 -10 12 -22 12 -13 1 -34 7 -47 14 -14 8 -31
12 -38 9 -7 -3 -13 0 -13 7 0 6 -6 10 -12 7 -7 -2 -22 1 -33 6 -21 11 -40 17
-62 19 -7 1 -13 4 -13 8 0 6 -94 34 -115 35 -5 0 -13 4 -16 8 -3 4 -16 9 -27
10 -12 1 -22 4 -22 7 0 4 -7 7 -15 8 -8 1 -22 3 -30 4 -8 1 -15 5 -15 10 0 4
-8 8 -19 8 -10 0 -34 7 -54 15 -19 8 -37 11 -41 8 -3 -4 -6 -1 -6 5 0 7 -9 12
-20 12 -12 0 -39 9 -60 19 -22 11 -40 15 -40 10 0 -5 -10 -5 -24 1 -13 5 -26
6 -29 4z"/>
<path d="M5931 4241 c-6 -9 -9 -10 -5 -2 5 10 3 12 -7 5 -8 -4 -23 -10 -34
-11 -11 -2 -24 -8 -29 -13 -4 -4 -15 -6 -22 -3 -8 3 -14 0 -14 -6 0 -6 -3 -10
-7 -10 -5 1 -10 0 -13 -1 -3 -1 -13 -3 -23 -5 -10 -2 -26 -7 -35 -11 -9 -4
-23 -8 -31 -10 -8 -1 -17 -6 -20 -11 -3 -4 -15 -8 -26 -7 -11 0 -24 -3 -30 -6
-8 -6 -42 -17 -75 -25 -3 0 -15 -6 -27 -13 -12 -7 -26 -11 -30 -11 -4 1 -17
-1 -28 -5 -62 -24 -73 -27 -93 -29 -11 0 -18 -5 -16 -9 5 -7 -26 -13 -48 -9
-5 0 -8 -4 -8 -11 0 -6 -3 -8 -7 -5 -3 4 -17 0 -30 -8 -14 -9 -23 -11 -23 -5
0 6 -13 2 -29 -9 -15 -11 -31 -18 -34 -14 -4 3 -18 -2 -32 -11 -18 -12 -25
-13 -25 -4 0 10 -2 10 -9 0 -4 -8 -12 -14 -17 -14 -5 0 -20 -5 -34 -10 -14 -5
-36 -12 -50 -15 -13 -2 -30 -9 -37 -15 -7 -6 -13 -7 -13 -3 0 4 -7 2 -15 -5
-8 -7 -15 -9 -15 -5 0 4 -11 0 -25 -9 -18 -12 -25 -13 -25 -4 0 9 -3 8 -10 -2
-5 -8 -10 -11 -10 -6 0 6 -5 5 -12 -2 -7 -7 -20 -12 -31 -12 -10 0 -16 -4 -13
-9 3 -4 -5 -8 -17 -8 -12 0 -31 -3 -42 -7 -11 -4 -33 -13 -50 -19 -16 -7 -32
-12 -35 -13 -19 -3 -67 -18 -75 -23 -5 -3 -19 -7 -30 -8 -11 -2 -22 -8 -23
-13 -2 -6 -8 -8 -13 -4 -5 3 -15 2 -21 -3 -7 -4 -17 -8 -23 -9 -5 0 -16 -2
-23 -2 -7 -1 -11 -6 -8 -11 4 -5 -2 -8 -11 -6 -10 1 -30 -4 -45 -12 -16 -7
-28 -11 -28 -9 0 3 -15 -1 -34 -9 -18 -8 -36 -11 -40 -8 -3 4 -6 2 -6 -3 0 -9
-14 -13 -57 -16 -7 -1 -13 -6 -13 -12 0 -6 -4 -6 -11 1 -8 8 -20 8 -35 3 -13
-5 -24 -6 -24 -2 0 4 -17 9 -37 10 -21 2 -40 7 -43 11 -3 5 -13 7 -22 5 -10
-1 -18 2 -18 7 0 6 -4 8 -9 4 -5 -3 -16 1 -24 9 -8 8 -17 12 -20 9 -4 -3 -14
-2 -24 1 -10 4 -20 7 -23 8 -3 0 -14 5 -25 11 -11 6 -31 13 -45 15 -13 2 -27
7 -30 11 -3 5 -13 7 -22 5 -10 -1 -18 2 -18 7 0 6 -4 8 -9 4 -5 -3 -12 -1 -16
5 -3 5 -17 10 -30 10 -13 0 -27 5 -30 11 -4 6 -13 8 -21 5 -8 -3 -14 -1 -14 4
0 6 -3 9 -7 8 -5 -1 -18 3 -29 10 -12 6 -24 9 -27 6 -3 -3 -16 0 -29 7 -12 7
-29 12 -35 11 -7 -2 -13 2 -13 8 0 5 -5 10 -11 10 -5 0 -7 -6 -3 -12 4 -7 -2
-5 -13 5 -11 9 -23 14 -26 10 -4 -3 -7 -2 -7 3 0 5 -12 11 -27 12 -15 1 -32 7
-37 12 -6 6 -20 10 -33 10 -13 0 -23 5 -23 11 0 5 -3 8 -7 6 -5 -3 -19 0 -33
6 -14 5 -36 12 -50 14 -13 2 -27 7 -30 11 -5 7 -19 12 -47 16 -7 1 -16 5 -19
9 -4 4 -18 7 -31 7 -16 0 -22 4 -17 12 4 6 3 8 -3 5 -6 -4 -30 0 -54 9 -24 8
-52 17 -61 19 -9 2 -25 8 -36 14 -11 6 -22 7 -26 4 -3 -3 -6 -1 -6 5 0 7 -11
12 -24 12 -14 0 -28 5 -31 10 -4 6 -10 8 -15 5 -4 -3 -28 4 -53 14 -25 11 -48
17 -51 14 -3 -4 -6 -2 -6 4 0 5 -6 10 -12 11 -24 1 -57 11 -78 22 -11 6 -25 8
-30 5 -6 -3 -10 -2 -10 2 0 9 -87 38 -103 35 -4 -1 -7 3 -7 10 0 6 -3 9 -6 5
-3 -3 -16 -2 -29 3 -18 7 -25 5 -30 -8 -3 -9 -6 -18 -6 -19 0 -2 -5 -17 -10
-35 -5 -18 -11 -59 -14 -92 -3 -32 -10 -66 -17 -74 -7 -9 -8 -13 -2 -9 7 4 11
-8 11 -35 0 -29 5 -43 19 -51 26 -14 120 -107 108 -107 -5 0 -4 -4 1 -8 16
-11 46 -70 51 -99 3 -15 8 -31 12 -37 8 -14 12 -32 13 -76 1 -19 7 -41 13 -49
8 -11 8 -13 0 -8 -8 4 -12 -3 -11 -21 0 -41 -13 -97 -24 -100 -5 -2 -6 -8 -3
-13 3 -6 0 -16 -6 -24 -7 -8 -9 -15 -4 -15 5 0 4 -4 -1 -8 -6 -4 -24 -28 -40
-54 -16 -26 -33 -44 -37 -42 -20 12 -5 -9 30 -44 53 -51 102 -93 102 -87 0 3
10 -3 22 -14 11 -11 25 -18 30 -15 4 3 8 1 8 -3 0 -5 22 -20 50 -34 27 -13 50
-27 50 -31 0 -5 7 -8 15 -8 8 0 31 -9 51 -20 20 -12 39 -18 42 -15 3 3 14 -2
24 -12 10 -9 18 -13 18 -9 0 3 13 0 29 -8 16 -9 31 -12 35 -9 3 4 6 1 6 -6 0
-7 5 -9 10 -6 6 3 10 2 10 -4 0 -5 8 -8 18 -6 9 1 23 -2 29 -7 7 -6 20 -8 28
-4 11 4 14 2 9 -6 -5 -8 -2 -9 9 -5 9 3 19 2 22 -4 4 -5 11 -7 16 -4 5 4 9 1
9 -6 0 -7 3 -10 6 -7 3 4 20 2 37 -4 18 -5 40 -10 50 -10 9 1 17 -3 17 -7 0
-4 10 -7 23 -6 12 1 26 0 32 -3 11 -7 33 -11 80 -14 17 -2 32 -6 35 -10 3 -3
23 -7 45 -9 22 -1 46 -8 54 -13 12 -9 13 -8 7 2 -7 12 -4 12 14 2 12 -6 31
-10 41 -7 10 3 19 2 19 -1 0 -4 17 -8 38 -9 20 -1 60 -4 87 -7 28 -3 76 -7
108 -10 32 -2 61 -6 63 -9 3 -3 19 -1 35 3 19 6 29 5 29 -2 0 -7 4 -7 13 1 8
6 17 7 21 3 11 -10 256 -9 256 2 0 5 7 3 15 -4 11 -9 19 -9 28 -2 8 7 18 7 27
2 9 -5 19 -5 27 2 9 7 13 7 13 -1 0 -9 5 -9 21 0 17 9 20 8 14 -2 -6 -8 -4
-10 5 -4 7 4 36 10 64 12 67 4 103 10 115 17 5 4 12 2 16 -4 4 -6 10 -8 15 -5
10 6 93 18 138 19 17 0 32 3 32 6 0 4 6 7 13 7 49 1 111 14 125 25 12 10 14
10 8 1 -4 -7 -3 -13 3 -13 5 0 12 4 16 9 3 6 14 8 25 6 11 -2 22 -1 24 3 2 4
19 9 37 10 18 1 37 6 43 11 6 5 19 7 29 6 9 -2 17 2 17 8 0 5 3 8 6 4 3 -3 17
-2 30 3 17 7 24 6 24 -3 0 -8 4 -7 10 3 5 8 14 16 20 16 5 1 11 2 13 3 1 2 12
4 23 6 12 3 34 9 50 15 16 6 30 11 32 11 1 -1 16 6 32 14 17 9 30 14 30 11 0
-2 27 9 60 25 33 16 67 29 75 29 8 0 15 4 15 9 0 10 29 22 43 18 5 -1 13 6 18
16 6 9 14 15 20 12 5 -4 9 -1 9 4 0 6 7 11 15 11 8 0 15 5 15 11 0 5 5 7 10 4
6 -3 10 -2 10 2 0 5 14 17 31 27 41 24 150 132 142 140 -3 3 -2 6 4 6 15 0 62
93 69 137 3 21 8 41 11 46 2 4 -2 7 -9 7 -8 0 -9 3 -2 8 12 8 13 102 0 102 -5
0 -4 6 1 13 11 14 11 116 0 133 -3 6 -3 14 0 18 11 11 9 126 -2 126 -5 0 -4 4
2 8 12 8 11 41 -2 62 -3 6 -2 10 3 10 12 0 10 73 -3 82 -6 5 -6 8 2 8 9 0 12
48 3 70 -1 3 -1 10 0 15 2 6 4 38 5 72 2 65 -11 85 -34 54z"/>
</g>
</svg>
